HIERARCHY
ROOT Hips
{
  OFFSET -35.2597 29.1586 114.425
  CHANNELS 6 Xposition Yposition Zposition Zrotation Xrotation Yrotation
  JOINT LeftUpLeg
  {
    OFFSET 8.64259 1.95398 -2.38835
    CHANNELS 3 Zrotation Xrotation Yrotation
    JOINT LeftLeg
    {
      OFFSET 43.7702 0 0
      CHANNELS 3 Zrotation Xrotation Yrotation
      JOINT LeftFoot
      {
        OFFSET 40.6238 0 0
        CHANNELS 3 Zrotation Xrotation Yrotation
        JOINT LeftToeBase
        {
          OFFSET 12.7242 0 0
          CHANNELS 3 Zrotation Xrotation Yrotation
          End Site
          {
            OFFSET 0 0 0
          }
        }
      }
    }
  }
  JOINT RightUpLeg
  {
    OFFSET -8.2249 1.95398 -2.59336
    CHANNELS 3 Zrotation Xrotation Yrotation
    JOINT RightLeg
    {
      OFFSET 43.5653 0 0
      CHANNELS 3 Zrotation Xrotation Yrotation
      JOINT RightFoot
      {
        OFFSET 40.6238 0 0
        CHANNELS 3 Zrotation Xrotation Yrotation
        JOINT RightToeBase
        {
          OFFSET 12.7242 0 0
          CHANNELS 3 Zrotation Xrotation Yrotation
          End Site
          {
            OFFSET 0 0 0
          }
        }
      }
    }
  }
  JOINT Spine
  {
    OFFSET 0.165834 0.87714 6.61349
    CHANNELS 3 Zrotation Xrotation Yrotation
    JOINT Spine1
    {
      OFFSET 7.38963 1.71661e-005 0
      CHANNELS 3 Zrotation Xrotation Yrotation
      JOINT Spine2
      {
        OFFSET 11.9445 1.14441e-005 0
        CHANNELS 3 Zrotation Xrotation Yrotation
        JOINT Spine3
        {
          OFFSET 14.7254 4.19617e-005 0
          CHANNELS 3 Zrotation Xrotation Yrotation
          JOINT Spine4
          {
            OFFSET 10.9679 0 0
            CHANNELS 3 Zrotation Xrotation Yrotation
            JOINT RightShoulder
            {
              OFFSET 2.46616 -1.6653 3.69651
              CHANNELS 3 Zrotation Xrotation Yrotation
              JOINT RightArm
              {
                OFFSET 13.0012 0 0
                CHANNELS 3 Zrotation Xrotation Yrotation
                JOINT RightForeArm
                {
                  OFFSET 28.7848 1.62311e-005 0
                  CHANNELS 3 Zrotation Xrotation Yrotation
                  JOINT RightHand
                  {
                    OFFSET 26.5688 1.62095e-005 0
                    CHANNELS 3 Zrotation Xrotation Yrotation
                    End Site
                    {
                      OFFSET 0 0 0
                    }
                  }
                }
              }
            }
            JOINT LeftShoulder
            {
              OFFSET 2.38034 -1.29275 -3.7523
              CHANNELS 3 Zrotation Xrotation Yrotation
              JOINT LeftArm
              {
                OFFSET 16.3182 6.07031e-005 0
                CHANNELS 3 Zrotation Xrotation Yrotation
                JOINT LeftForeArm
                {
                  OFFSET 27.0901 0 0
                  CHANNELS 3 Zrotation Xrotation Yrotation
                  JOINT LeftHand
                  {
                    OFFSET 24.5451 1.51738e-005 0
                    CHANNELS 3 Zrotation Xrotation Yrotation
                    End Site
                    {
                      OFFSET 0 0 0
                    }
                  }
                }
              }
            }
            JOINT Neck
            {
              OFFSET 5.0226 -0.0266342 0
              CHANNELS 3 Zrotation Xrotation Yrotation
              JOINT Head
              {
                OFFSET 6.69364 2.86102e-005 0
                CHANNELS 3 Zrotation Xrotation Yrotation
                End Site
                {
                  OFFSET 0 0 0
                }
              }
            }
          }
        }
      }
    }
  }
}
MOTION
Frames:	18
Frame Time:	0.0416667
-24.1451 90.6642 18.5108 101.877 49.2106 83.5087 -171.45 27.7364 88.5678 -7.76262 20.1328 0.458057 57.2371 13.4848 -25.1421 156.845 3.0781 -62.3107 174.509 29.2698 96.788 -47.9802 -6.46439 4.27611 74.1163 -1.78315 -1.97912 18.0438 2.3461 5.73163 -0.839169 7.85848 -90.183 11.1558 -1.75522 -0.193073 -0.514052 -1.76201 -0.115617 -23.0571 -1.61606 -0.711789 -3.0445 -1.61603 -0.711787 87.2135 -38.5493 -108.74 41.6978 10.6835 6.6827 -4.93257 -36.1873 -5.24979 -16.0133 1.44624 -15.9566 -87.6192 -53.1623 82.8331 -26.9015 -10.1503 -32.9248 3.39041 36.4372 -4.44168 2.50124 -0.468899 -12.468 3.87119 -1.89477 -8.32741 -1.70051 -0.422878 0.375426 
-16.986 89.6499 11.4274 103.073 47.1478 84.1635 -171.312 25.2443 90.8071 -4.66099 20.7568 0.198824 52.5787 12.7144 -25.9984 158.533 0.444218 -64.6823 174.006 24.6992 97.8899 -55.4238 -8.39813 5.71295 81.8776 -6.78517 -1.8209 18.1314 2.23249 5.94594 -0.457869 7.95593 -90.4405 10.958 -1.11545 -0.771237 -0.712613 -1.1483 -0.721397 -23.2484 -0.83211 -1.07081 -3.23575 -0.83209 -1.07081 87.188 -37.3762 -109.216 41.0401 9.91002 1.91651 -5.09466 -38.8649 -5.33339 -19.0868 1.79375 -16.2808 -87.7892 -55.7853 83.012 -25.552 -12.0314 -21.6092 3.48893 38.6659 -4.56195 0.291555 -0.110704 -5.5404 4.13284 -1.12386 -5.27842 -1.57485 -0.180632 -0.087386 
-10.9804 90.0388 5.51487 102.996 47.1851 82.6983 -172.541 24.0692 89.6395 -3.80183 10.2082 0.158774 54.5003 16.8981 -34.6999 162.823 5.84677 -58.0339 173.761 18.5379 96.7339 -56.4925 -9.00013 4.22595 87.927 -8.98329 -1.45499 21.4759 1.41413 4.70442 -0.217087 8.00911 -90.2517 10.8544 -0.548452 -0.449348 -0.816481 -0.567693 -0.424782 -23.3515 -0.388045 -0.593407 -3.33889 -0.388053 -0.593414 87.2237 -37.0959 -109.259 40.1583 8.70658 -5.39263 -4.9745 -36.8989 -5.27066 -23.111 2.26759 -16.5952 -87.5286 -56.384 83.4734 -24.5165 -13.2676 -11.639 3.36891 36.3396 -4.43951 -0.37548 -0.110765 -5.53193 2.6714 -1.39176 -5.40358 -0.487161 -0.489683 0.292318 
-6.5107 91.8294 0.734343 101.28 44.9364 81.6293 -173.96 24.3985 88.4092 -5.19714 -3.79698 0.0703039 59.3432 16.2684 -43.4942 168.596 18.3021 -45.5032 174.233 12.2513 94.8834 -51.8421 -11.1225 1.25419 89.0131 -10.2329 -2.62925 22.7512 0.82178 4.9833 0.371093 8.0522 -89.9438 10.7685 0.765017 0.0409361 -0.902214 0.766063 0.00721855 -23.4388 0.717335 0.268962 -3.42614 0.717347 0.268966 87.7677 -35.3389 -108.953 39.9867 7.25149 -12.4636 -4.92958 -36.1375 -5.24807 -25.1836 3.14422 -19.581 -87.0885 -57.0785 84.1914 -21.9492 -14.6395 -4.79924 3.54355 39.6836 -4.61733 -1.12913 -0.156891 -10.268 3.27364 -2.03998 -3.41937 -0.458388 -1.4415 -1.09123 
-2.63715 93.4151 -4.04737 100.628 42.7336 81.7402 -176.632 24.6907 88.9719 -7.60981 0.792149 0.0278919 58.6235 6.67492 -34.5869 164.011 32.1456 -30.768 174.376 4.003 95.4676 -45.225 -13.0191 0.0914926 87.5606 -11.4513 -2.89959 25.1858 -0.30703 5.60661 0.938249 8.17705 -89.9288 10.5209 1.9016 -0.028639 -1.1486 1.89849 -0.112342 -23.6944 1.82225 0.544389 -3.68176 1.82225 0.544383 87.6077 -33.415 -110.004 38.9804 6.55712 -18.0391 -4.95363 -36.5503 -5.26007 -27.0031 3.9989 -22.1524 -87.1811 -60.2146 84.5083 -17.1948 -16.3487 0.104926 3.51643 39.2164 -4.58892 -1.30287 -0.153247 -11.2515 3.30432 -2.81031 1.15478 1.34518 -3.03774 -4.1873 
2.09711 94.6134 -9.61155 102.024 42.4591 80.8269 -177.485 22.6496 88.2844 -7.91456 1.93654 -1.26956 52.4567 -2.82337 -24.6724 116.628 34.4114 -3.05031 173.828 -5.46979 89.9216 -35.4403 -13.8937 -0.386515 85.776 -13.3881 -4.49149 25.8689 -0.401817 5.09871 1.21807 8.33284 -90.0315 10.2126 2.41256 -0.267763 -1.45616 2.39845 -0.373755 -24.009 2.38144 0.470117 -3.99633 2.38145 0.470114 87.5526 -32.761 -110.377 37.0928 6.96346 -21.1735 -5.19561 -40.4444 -5.38916 -27.2402 4.23115 -22.9658 -87.049 -62.909 85.0491 -15.0126 -16.943 3.93487 3.26957 34.2016 -4.33999 -1.10734 -0.141152 -9.15335 2.7169 -3.17741 3.53432 2.20788 -3.83365 -4.99184 
8.29286 95.0039 -16.4457 101.475 40.4372 80.6406 -177.277 19.5072 86.6465 -8.0815 -0.0600302 -2.35652 52.3668 -4.14571 -15.2487 74.5608 19.9022 12.8158 172.284 -14.3749 89.8313 -28.3884 -16.3685 -1.01294 81.7911 -13.0933 -5.3203 30.613 -2.13584 5.01351 1.54268 8.22092 -89.9496 10.4373 3.0962 -0.172667 -1.23001 3.08561 -0.3089 -23.7936 3.00481 0.766715 -3.78095 3.00481 0.766718 86.9523 -33.2094 -111.312 37.0091 7.15368 -20.4844 -5.29988 -42.0164 -5.44987 -25.3427 3.51845 -21.1681 -86.634 -64.2057 85.7529 -15.2167 -16.8093 6.38978 3.00295 27.7241 -4.06699 -2.58667 -0.0808629 -9.5233 2.47787 -3.2223 3.36967 1.44926 -3.81097 -4.81626 
15.6517 96.1375 -24.307 100.505 38.3304 80.2178 -176.78 15.4985 84.4571 -10.8066 3.22266 -2.70888 54.2152 -2.37525 -7.40603 32.4048 -9.48264 24.0896 170.839 -16.6022 86.3527 -31.0782 -18.6861 -2.93853 69.3086 -5.56628 -5.25137 41.7615 -6.97738 10.4022 1.61006 7.9935 -89.7128 10.8863 3.33847 0.257824 -0.780404 3.34659 0.110474 -23.3461 3.1065 1.2502 -3.33351 3.1065 1.2502 86.7999 -33.4247 -111.503 40.9664 5.82999 -16.4514 -5.26515 -41.4932 -5.42956 -23.2696 2.59241 -18.1265 -85.8915 -64.5849 86.7548 -15.2816 -16.7861 6.46407 2.91959 25.3665 -3.98266 -3.93187 -0.00992383 -10.4529 3.89766 -2.79166 2.39961 -0.40459 -3.1853 -5.04187 
22.4597 96.9971 -31.3447 102.26 38.685 77.1899 -175.758 13.9873 81.3287 -24.861 6.04607 -3.34554 64.1183 1.74628 -4.76435 16.6793 -17.6133 16.1583 170.593 -8.54876 82.4795 -49.9634 -22.5491 -4.56177 54.8489 3.92413 0.760165 31.2465 -3.49501 9.86514 1.2257 8.02066 -89.4456 10.8243 2.69655 0.852553 -0.844074 2.73145 0.732971 -23.3946 2.31563 1.62388 -3.382 2.31564 1.62389 86.5383 -33.9767 -111.752 43.941 5.67873 -10.9264 -5.33701 -42.5479 -5.47211 -22.3018 2.33464 -17.3836 -86.3981 -63.0363 85.9162 -16.0283 -16.7219 1.18193 3.04394 28.887 -4.10524 -4.22406 -0.0136779 -9.04409 3.86402 -2.49864 0.800282 -0.0232109 -2.63542 -4.93475 
28.0743 97.9801 -36.6776 103.43 37.9105 75.7401 -175.56 7.87789 80.3882 -26.8859 4.84286 -3.8052 69.9352 5.55545 -1.47043 13.3963 -13.6012 7.69148 175.041 2.97487 83.4992 -64.4893 -23.2266 -6.3866 59.0105 0.736797 -0.631587 25.6288 -0.797498 6.56727 0.894892 8.18399 -89.3055 10.4927 2.1013 1.19314 -1.177 2.15175 1.09949 -23.717 1.6456 1.76954 -3.70435 1.64558 1.76953 86.5954 -34.7812 -111.307 45.077 6.10729 -7.34471 -5.47167 -44.4299 -5.55438 -22.6781 2.28279 -16.8961 -86.8186 -61.8195 85.2097 -16.5076 -16.7628 -9.61794 3.10827 30.4748 -4.17292 0.436127 -0.135215 -6.61748 3.57363 -1.79202 -0.149651 0.195269 -1.79265 -5.48502 
33.6504 99.3379 -41.3734 104.471 40.3496 78.0331 -175.766 0.783989 83.1364 -23.835 7.14547 -1.86162 75.7546 9.56989 -1.63998 7.93062 -18.9275 9.32806 176.834 10.477 88.5407 -57.0756 -11.4617 -4.2591 67.2155 -4.93996 -2.46414 25.5557 -0.582807 6.03693 0.331735 8.19953 -89.6513 10.4723 0.820805 0.620136 -1.19854 0.847282 0.583417 -23.7338 0.596463 0.838145 -3.72111 0.596469 0.838143 86.9705 -35.261 -110.429 45.0624 6.94258 -4.21895 -5.34758 -42.6973 -5.47834 -20.6517 2.25991 -17.988 -86.72 -60.1809 85.1263 -16.7442 -16.8662 -20.6686 3.04072 28.6594 -4.11322 3.46935 -0.289993 -8.27779 1.38077 -1.05078 -1.733 0.630763 -0.830157 -3.95132 
39.5113 99.6871 -45.9018 104.158 43.3425 80.3442 -175 -4.55654 86.0934 -21.255 11.4729 -0.570021 77.7667 11.2431 -0.0428732 11.953 -15.7785 9.1052 177.672 13.7743 91.9036 -35.3711 -2.93928 -2.03005 68.3604 -6.28749 -1.84442 25.182 -0.0772734 4.90171 -0.0473433 8.16471 -89.9321 10.5439 -0.0631242 0.14056 -1.12706 -0.0568632 0.143196 -23.6622 -0.102442 0.115095 -3.64952 -0.102444 0.115083 87.3574 -35.8082 -109.515 44.2843 8.14378 -0.695144 -5.11465 -39.1856 -5.34493 -21.7763 2.5652 -18.9076 -86.641 -56.3596 84.7129 -19.5607 -15.2222 -31.3833 2.98782 27.3318 -4.05018 5.26242 -0.657605 -12.9004 1.10442 -1.35084 -4.25862 0.5737 -0.730316 -2.62297 
45.8618 98.8644 -50.8709 103.155 45.1787 81.8193 -173.41 -9.33314 88.6916 -20.5821 13.9894 -0.365917 80.6682 12.9979 0.171313 16.1214 -12.6883 8.96454 178.012 14.795 93.3208 -12.8729 -4.99425 -0.113038 64.6846 -4.44883 -1.81805 26.9337 -0.633396 4.55034 -0.232151 8.13173 -89.9929 10.6105 -0.459046 0.0556162 -1.06036 -0.456159 0.0757532 -23.5962 -0.454542 -0.0849205 -3.58359 -0.454549 -0.08493 86.8816 -37.7235 -109.624 42.1275 9.64409 2.43447 -5.06636 -38.4123 -5.31863 -21.5557 2.5856 -19.1664 -86.7366 -53.9099 84.2257 -20.9851 -14.0058 -40.4568 2.96723 26.8093 -4.02438 6.376 -1.19105 -18.6021 2.10114 -1.93152 -7.59174 0.800416 -0.729851 -1.68873 
52.7254 96.9645 -56.5688 103.024 46.4367 81.6987 -171.62 -15.9869 90.8291 -18.9486 15.6304 -0.374256 86.725 17.6796 -1.17718 15.4048 -14.9615 11.3494 178.01 16.4208 94.1786 -6.59649 -4.33295 0.815552 65.2205 -4.14137 -1.92657 28.3832 -0.945348 3.7657 -0.44346 8.14204 -89.9647 10.59 -0.867015 0.14776 -1.08064 -0.859665 0.185769 -23.618 -0.87132 -0.119669 -3.60535 -0.87133 -0.119664 86.7174 -38.7534 -109.524 40.889 10.397 4.05912 -5.0226 -37.6979 -5.29547 -18.3469 1.89538 -17.3421 -87.0527 -54.6334 83.8798 -20.9545 -13.8433 -44.8482 2.97206 27.1193 -4.01196 7.56072 -1.64029 -22.0631 3.25697 -2.18623 -8.48022 0.812795 -0.767689 -2.4432 
60.5469 96.5078 -63.4611 103.417 48.4548 82.6121 -168.866 -21.6597 95.2011 -17.8826 19.4661 0.545961 80.2013 15.1715 1.52977 27.1685 -7.99483 13.4086 177.941 18.4653 95.6362 -16.2511 -7.66832 1.0352 60.5855 0.349219 -1.19646 22.8788 0.588532 5.50792 -0.640106 8.01904 -90.1785 10.8349 -1.35695 -0.228327 -0.835307 -1.36565 -0.168388 -23.3751 -1.22558 -0.625647 -3.3625 -1.22558 -0.62565 87.4041 -38.724 -108.343 40.8766 10.7562 5.8063 -5.03308 -37.869 -5.30096 -17.4467 1.62766 -16.2456 -87.3947 -55.7765 83.5684 -22.5598 -12.6651 -41.8115 3.01445 28.0477 -4.07903 8.02798 -1.32307 -17.8509 3.58141 -2.26739 -7.85145 -0.382279 -0.909544 -3.21576 
68.4684 96.8577 -70.7438 104.646 48.0431 83.4739 -168.959 -18.3019 97.3288 -32.7369 19.4427 2.81845 66.0046 4.57902 2.2295 38.6752 0.85684 10.3909 177.644 16.9776 97.9453 -26.7106 -8.5312 1.46956 61.4131 -0.0532388 -1.4033 16.4013 2.5058 6.88866 -0.58832 7.86334 -90.4185 11.1429 -1.36547 -0.700792 -0.527502 -1.395 -0.64002 -23.0651 -1.09172 -1.07879 -3.05249 -1.09172 -1.07879 87.9997 -37.3868 -107.776 42.3056 10.4593 6.4477 -4.99983 -37.3197 -5.28349 -17.8512 1.62539 -15.9751 -87.3663 -56.1659 83.6669 -23.7981 -12.3744 -31.534 3.25858 33.9647 -4.32696 1.52868 -0.363724 -12.3354 2.69851 -1.98463 -6.37739 -2.73102 -0.860323 -3.90762 
74.6842 97.7411 -76.5632 106.437 47.5176 83.5218 -170.865 -4.86382 99.1452 -55.5493 20.5729 4.13009 54.6014 -4.01275 0.409643 11.0194 -11.4854 2.63371 177.553 11.2699 99.6549 -29.6634 -8.40975 1.897 66.9104 -4.01518 -2.37831 19.006 1.8055 6.17222 -0.384597 7.9569 -90.6081 10.9529 -1.04711 -1.11067 -0.717997 -1.09499 -1.06352 -23.251 -0.664939 -1.37398 -3.23836 -0.664949 -1.37399 88.3084 -36.4883 -107.546 43.2235 9.37692 2.89126 -4.9204 -35.9783 -5.24359 -19.3349 1.92001 -16.8084 -87.4362 -58.0655 83.8556 -22.9194 -13.5406 -21.1248 3.43795 37.6795 -4.50952 -2.66399 -0.0789415 -6.95377 2.06872 -1.97735 -4.41995 -2.24351 -1.20906 -4.30319 
79.6316 99.0218 -81.4921 106.365 48.0226 81.8719 -173.818 7.56359 95.2588 -62.0732 12.0214 3.73212 64.2724 3.09145 2.30883 13.1117 -12.4601 5.80534 177.336 4.91972 98.3593 -26.898 -8.95672 1.23994 69.866 -5.83826 -2.9244 21.0575 1.11523 5.95472 0.0136438 8.04063 -90.4548 10.7912 -0.182629 -0.886559 -0.880034 -0.221471 -0.877666 -23.4128 0.0922352 -0.900459 -3.40017 0.0922425 -0.900456 87.9969 -35.9947 -108.287 42.8595 8.41815 -1.83709 -4.93991 -36.3107 -5.25343 -23.6074 2.59829 -17.9494 -87.4899 -59.3922 83.976 -21.8253 -14.4097 -13.126 3.41967 37.1016 -4.4978 -2.98232 -0.0676912 -8.2049 0.783847 -3.10736 -3.81664 -0.998293 -2.50942 -4.12066 
